<svg xmlns="http://www.w3.org/2000/svg" viewBox="0 0 566.03 141.33"><defs><style>.cls-1{fill:#fff;}.cls-2{fill:none;stroke:#e60012;stroke-miterlimit:10;stroke-width:12px;opacity:0.5;}</style></defs><g id="レイヤー_1" data-name="レイヤー 1"><path class="cls-1" d="M91.41,407.76c-2.65,1.79-13.45,6.47-16.75,7.59a31.43,31.43,0,0,0-6.18,3.12A33,33,0,0,1,60.33,420c-5.07,0-4.85-5.35-8.38-5.35-3.08,0-5.73,4.23-11.46,4.23A28.15,28.15,0,0,1,33,417.58c-4.19-1.12-6.17-2-6.17-6.92,0-6.47,8.81-12.71,13.88-15.61,4.19-2.23,8.6-6.24,14.11-6.24h.88c2.21,0,4.19-.89,6.17-.89,3.53,0,4.63,4.46,4.63,7.35,0,4.46-4,8.7-4,11.82,0,2,1.33,4.91,3.53,4.91,1.76,0,13.45-3.35,15.43-4.46s7.49-3.79,9.7-3.79c.88,0,2.2.44,2.2,1.34C93.39,406.2,92.07,407.32,91.41,407.76ZM56.58,395.05c-4.85,0-12.78,8.25-17.19,10.71-1.32.89-2.64,2-2.64,3.79,0,2,2,3.12,3.74,3.12,4,0,10.58-5.58,12.57-8.92,1.32-2.45,5.73-3.79,5.73-6A2.49,2.49,0,0,0,56.58,395.05Z" transform="translate(-24.07 -309.51)"/><path class="cls-1" d="M220.57,410.66c-7,2.9-14.77,8.92-22.7,8.92-.88,0-1.77-.22-2.65-.22-1.32,0-2.42.45-3.74.45-5.29,0-9-4.69-9-10,0-3.12,1.76-5.35,1.76-6.47s-1.54-1.34-2.42-1.34c-2.87,0-3.53,2.46-8.16,2.46-2.64,0-5.29,2.45-7.71,3.57a77.48,77.48,0,0,0-9.48,5.13c-2.87,1.78-3.53,6.91-6.61,7.35a4.16,4.16,0,0,1-1.77.23s-6-2.68-6-5.13c0-4,5.73-5.13,5.73-9.81,0-2.46-1.76-3.57-4.18-3.57a10.42,10.42,0,0,0-5.51,2c-3.09,2.46-5.07,2.9-8.82,3.57a36.62,36.62,0,0,0-11,5.58c-2,1.56-5.07,6.24-7.72,6.24-1.54,0-6.17-2.67-6.17-4.23a3.78,3.78,0,0,1,2-3.13c2.2-1.34,4.4-8.69,4.4-10.92,0-1.79-1.1-2.23-2.64-2.23-6.61,0-7.27,4.9-11.68,5.79-4,.9-7.72,5.13-11.24,5.13-1.11,0-2.21-.44-2.21-1.56a3.43,3.43,0,0,1,2-2.9,45.21,45.21,0,0,0,6.83-4.46c5.07-3.57,13.66-11.59,20.06-11.59,2.2,0,1.1,1.11,3.3,1.56,2.21.67,6.61,1.34,6.61,4.46,0,2-1.32,4-1.32,6.24,0,1.12.66,1.79,2,1.79s2.64-.67,4.18-.67a22,22,0,0,1,4-2c4.19-2.23,7.72-6.91,12.78-7.14,4.85,0,7.28-3.34,10.58-3.34,2.65,0,9.26,2.9,9.26,6,0,1.56-2,3.79-2,5.8,0,.67.22.89.88.89,4,0,13.22-7.36,18.74-8.25,3.52-.45,5.51-5.13,9.91-5.13,3.53,0,7.5,3.12,7.5,6.91,0,3.57-6.83,6.69-6.83,15.17,0,2.23,2.86,2.45,5.73,2.45s6.17-.45,8.59-2.23c3.09-1.78,6.61-2,9.48-3.79,2-1.12,3.75-1.79,5.73-2.68,1.32-.67,3.31-2,4.85-2,.88,0,2,.66,2,1.56C227.84,407.54,222.11,410,220.57,410.66Z" transform="translate(-24.07 -309.51)"/><path class="cls-1" d="M266,410.44c-2.65,1.34-5.07,2.23-7.5,4.24-2.64,2.45-7.05,2.9-10.58,3.79-2.64.67-5.73,2.45-8.59,2.45-3.31,0-10.36-2.68-11.46-6-.45-2-.45-4.46-1.55-6-.66-1.12-2-2.23-2-3.57,0-1.56,4.41-5.8,5.73-6.69,2.42-1.56,4-4,5.73-6.24,1.32-1.79,4-2.23,6.17-2.23,2,0,3.75.22,3.75,2.89a2.18,2.18,0,0,1-.88,2c-2,1.34-2.43,5.13-4.85,6.25a8.67,8.67,0,0,0-4.63,6.91,5.32,5.32,0,0,0,5.07,5.13c1.54,0,2.86-.67,4.41-.67.66,0,1.54.22,2.42.22a3.38,3.38,0,0,0,2.87-1.11c2.42-2,7.93-1.12,11.46-3.79,2.64-2,4.19-1.57,5.73-2.68a7.6,7.6,0,0,1,3.75-1.34c.88,0,2.2.22,2.2,1.34C273.25,408,268,409.55,266,410.44Zm23.8-60c-5.51,0-8.81-4.91-8.81-10.26,0-2.45,4.4-8.92,6.17-8.92,1.1,0,2.42,1.56,3.3,2.45,2,2.23,1.55,5.8,2,8.48.22,1.78,1.76,3.12,1.76,4.68C294.19,348.67,291.55,350.45,289.78,350.45Z" transform="translate(-24.07 -309.51)"/><path class="cls-1" d="M356.34,326.14c-2,1.79-3.3,4.46-4.84,6.69a70,70,0,0,1-6.62,7.58c-5.29,5.58-25.79,25.87-28.43,32.12-1.54,4.24-6.39,6.24-8.38,10.26-1.76,3.34-2.86,6.46-5.95,9.14-3.08,2.9-5.07,6.91-8.15,10a57,57,0,0,0-10.14,13.83c-1.32,2.23-4.63,8.7-7.5,8.7-1.76,0-3.74-3.12-3.74-4.68,0-2,2-4,3.3-5.36,3.75-4,5.73-9.14,9.92-12.49,4-3.56,6.84-8.25,10.58-12.26,3.31-3.57,4.63-8.47,8.38-11.6a44.42,44.42,0,0,0,4.85-5.8,1.87,1.87,0,0,0,.66-1.11.83.83,0,0,0-.22-.67c0-.22-.66-.22-.66-.22a6.35,6.35,0,0,0-.66.89c-1.11,1.78-4.19,6-6.4,7.36-4.18,2.68-4.62,6.91-7.93,9.14-3.31,2.46-5.07,6-7.94,8.92-4,4.46-9.25,8-14.54,10.93-1.77.89-7.28,4.24-9,4.24-1.32,0-3.09-.67-3.09-1.56v-.9c0-.89,9.48-5.35,10.8-6,3.09-2,6-4.23,8.82-6.24,5.29-3.57,9.26-11.82,11.9-13.6,2.87-1.79,5.29-8.48,9.26-10.93s6.17-6.47,8.6-10.26c3.08-4.46,7.93-7.14,11.24-11.15,3.08-4,7.27-6.69,9.92-10.71,2-2.89,5.73-4,7.71-7.13,2.65-3.79,7.94-5.35,10.36-9.14,2.42-3.35,4.63-7.36,8.6-9.15,1.1-.44,3.52-2,4.62-2,1.33,0,2,1.34,2,2.46C363.62,318.56,358.77,324.14,356.34,326.14Zm1.77,80.06c-.22,1.56-4.63,3.35-5.95,3.79-3.09.89-5.73,4-8.82,4.46-2.64.45-4,2.9-6.83,2.9-1.77,0-4.63,3.35-8.6,3.35h-5.73c-4.19,0-7.49-6-7.49-9.82,0-.89.22-1.56.22-2.45,0-2.23-2-4.68-4.19-4.68h-2a2.35,2.35,0,0,1-2.65-2.68c0-2.67,4-4,5.51-6,1.76-2.23,3.09-4.68,5.29-6.47,2-1.78,5.07-6.69,6.83-7.58a8.48,8.48,0,0,1,2.21-.67c1.1,0,1.76,2,1.76,2.9,0,2.9-3.53,6.92-5.51,8.92-1.32,1.79-2,4-3.53,5.58a2.33,2.33,0,0,0-1.1,2c0,2.46,3.75,4.91,4.85,9.59.44,2.68,1.1,4.24,4.19,4.24,3.3,0,7.05-1.11,10.36-1.56,2.64-.22,4.63-2.23,7.05-2.9,4.19-1.11,9.26-5.13,13-5.13.88,0,1.32.22,1.32,1.12A2,2,0,0,1,358.11,406.2Z" transform="translate(-24.07 -309.51)"/><path class="cls-1" d="M438.12,410.66c-4.19,2.46-7.72,4.69-12.79,5.35-4,.67-7.49,4.69-10.36,4.69h-1.1c-3.53-1.12-5.29-.23-8.6-2.68-3.74-3.12-5.51-11.15-7.71-11.15-5.51,0-6.39,5.8-9.92,6.47-2.2.44-3.31,2.9-8.15,3.79-3.09.67-6.62,2.9-9.48,2.9-3.53,0-11.68-.89-13.45-4s-4.85-3.12-4.85-8.69a2.72,2.72,0,0,1,.89-2c2.86-2.45,7.71-3.35,10.8-7.36,2.42-2.9,6-4.46,8.15-7.36a8.18,8.18,0,0,1,6.17-2.9c2.21,0,4.41,2.9,4.41,5.13,0,.89-.66,1.34-1.54,1.34-3.31,0-4.41,3.57-5.95,5.8-3.53,5.13-9.26,2-9.26,11.15,0,2,.88,3.12,3.08,3.12,4,0,8.82-2.23,12.57-3.57,3.3-1.11,5.51-6.47,9.92-8.25,4-1.78,6.17-6.69,10.8-7.14,3.08-.44,4.19-5.12,7.49-5.12,3.09,0,4.85,2.89,4.85,5.79,0,4.91-5.95,6.47-5.95,11.15,0,2,3.31,7.36,5.95,7.36a7.82,7.82,0,0,0,2.2-.44c6-2.68,13.23-3.79,19-6.69,2.21-1.12,5.07-2.9,7.27-2.9.89,0,2.65.44,2.65,1.56C445.17,407.54,439.44,410,438.12,410.66Z" transform="translate(-24.07 -309.51)"/><path class="cls-1" d="M534.21,338.41c-1.76,1.78-6,4.24-6.61,5.13-1.54,2-1.76,6.46-4.19,7.13-3.52.89-6.61,10.93-11.9,11.6-2.64.22-2.42,6.69-5.29,6.91-3.08.45-5.73,6.92-7.93,7.36-2.21.23-3.53,7.58-7.5,8.92-3.3,1.12-3.74,5.8-6,8-2.2,2.68-.66,3.12-1.76,5.35a8.4,8.4,0,0,0-.88,3.12,25,25,0,0,0,.44,4c.44,4.46-.66,5.13,4,7.58a4.54,4.54,0,0,0,2.64,1.12c2.2,0,3.09-2,5.51-2.46A7.48,7.48,0,0,0,497,412c1.77-.45,3.75-1.78,5.51-2.68,2.21-1.11,12.13-5.79,14.11-5.79.88,0,.88,1.11.88,2,0,2-9.7,6.69-11.9,7.36-2.64.67-4.85,2.46-7.49,3.35-2.87,1.34-5.73,2.67-8.82,3.79a15.82,15.82,0,0,1-5.51.89c-1.76,0-5.29-.22-5.95-2.23-.88-2.68-3.09-2.23-3.53-5.35-.22-.89-.88-3.57-2.2-3.57-2,0-1.77,3.35-5.07,3.35-2,0-6.83,5.12-11.24,5.12-2.21,0-4.63,2.46-8.6,2.46-5.07,0-9.26-3.12-9.26-8.7a6,6,0,0,1,1.11-3.35c.88-1.56.44-3.34,1.76-4.46,2.64-1.78,4.63-4.46,7.49-6.24,3.09-2,5.73-6.24,9.48-7.14,2.65-.66,4.41-2.89,7.27-2.89,1.11,0,2.43-1.34,3.53-1.34,3.53,0,2.65,3.34,4.41,3.34,2.2,0,5.73-5.35,6.61-7.13,1.32-2.46,3.31-4.24,4.85-6.25a72.82,72.82,0,0,0,7.72-10.7c.44-.89,6.17-8.25,6.39-8.48,4.41-1.78,5.51-7.8,9.7-9.59,4-1.78,6.17-8.47,9.91-9.36,6-1.12,9.26-9.15,15.21-9.15,2.21,0,6.84,1.34,6.84,4.24C540.17,335.29,535.54,336.85,534.21,338.41Zm-65.9,55.08c-.44,0-1.54.89-3.09.89-2.42,0-5.51,2.68-7.71,3.79-2.42,1.12-2.64.45-3.75,3.35-1.32,3.79-7.05,4.9-7.05,9.59,0,2,2,2.23,3.53,2.23,5.51,0,7.71-4,9-4s3.09-3.34,5.07-4.23c2.65-.9,1.11-1.79,2.65-3.35,1.54-1.34,2.64-4.9,2.64-6.69C469.63,393.49,469,393.94,468.31,393.49Z" transform="translate(-24.07 -309.51)"/><path class="cls-1" d="M560.88,411.55a35.79,35.79,0,0,1-10.8-2.23c-1.1-.44-3.74-1.78-4.85-1.78s-3.08,1.56-3.52,2.23c-.88,2.45-3.31,3.57-5.29,4.24-4.85,1.78-7.28,6.24-13,6.24-2,0-3.74.89-5.73.89-3.08,0-8.81-3.79-8.81-7.13a3.64,3.64,0,0,1,.66-2c1.1-2,.88-5.13,2.42-6.91,3.31-4,12.79-13.83,18.3-14.5,3.3-.67,6.61-2.67,10.13-2.67,2.87,0,3.75,3.56,6.62,3.56,1.54,0,4.85,3.35,4.85,4.91,0,.67-1.11,1.56-1.11,3.12,0,4.68,7.5,7.14,11.25,7.14,6.17,0,10.57-5.13,13.88-5.13.66,0,.88.67.88,1.11C576.75,407.54,564.85,411.55,560.88,411.55Zm-25.12-9.14a8.92,8.92,0,0,1-1.77-3.79v-.89c0-.45.22-.67.22-1.34,0-.22-.66-.45-.66-.45-4.85,0-5.73,4-8.37,5.13-2.21.89-3.31,3.79-3.75,5.8-.44,1.56-2.21,3.12-2.21,4.46,0,2,3.31,2.9,4.85,2.9,6,0,7.28-5.8,11.25-7.58.66-.23,2.64-1.12,2.64-2C538,403.53,536.42,403.08,535.76,402.41Zm6.83-6.47c-.44,0-1.54.23-1.54.9,0,.89,1.32,1.56,2,1.56a1,1,0,0,0,1.1-1.12A1.48,1.48,0,0,0,542.59,395.94Z" transform="translate(-24.07 -309.51)"/></g><g id="レイヤー_2" data-name="レイヤー 2"><path class="cls-2" d="M60.11,391.25s-25.78,7.09-29.47,17.86,11.63,6,11.63,6,16.16-6.24,22.4-22.4-13.38,18.88-4.56,23.47S112,392.38,112,392.38l5.39,4s-2,13.33-7.94,19,23.64-12.1,42.64-20.3c17-7.36-8.47,22.94-8.47,22.94s74.63-44.83,43.46-12.46c-3.58,3.72,2.42,10.3,2.42,10.3s13,8.83,51.53-20.78-21.4,9.09-6.52,21.6c19.09,16.06,85.65-70.31,118.17-97.34,33.2-27.6-78.25,104.19-78.25,104.19s44-28.64,52.79-42-19.55,26.34-6.79,35.13,60.25-28.94,60.25-28.94-23.39,22.7-20,28.37,38.28-8.28,49.06-22.57-14.47,18.88,0,23.42,61.77-30.36,61.77-30.36-23.12,14-29.45,27.68c-6.13,13.3,27.52-9.14,27.52-9.14l60.11-78.36,4.54,4.54s-69.51,67.34-53.71,83.94c7.22,7.57,30-6.68,30-6.68s17.19-18.84,25.42-17.14-26.44,8.83-20.7,22.84c5.42,13.24,33.17-18.29,33.17-18.29s-8.79-7.95-13.89,3.11,24.1,9.92,24.1,9.92,12.28-1.75,19.43-8.45L283.34,323.14s2.07,23.89,10.85,31.64" transform="translate(-24.07 -309.51)"/></g></svg>